<svg width="201" height="25" viewBox="0 0 201 25" fill="none" xmlns="http://www.w3.org/2000/svg">
<path d="M76.5348 0.828125H94.58L94.0636 3.79025C93.899 5.0954 92.7982 6.11683 91.4533 6.1225H75.5248C74.3445 6.15655 73.3684 6.95666 73.062 8.04618L73.3968 6.1225L73.9245 3.14335C74.0834 1.8382 75.1843 0.828125 76.5348 0.828125Z" fill="#42BA78"/>
<path d="M22.9451 4.21502L18.7573 8.24396C17.838 6.68913 16.3456 5.92874 14.2176 5.92874C9.61552 5.92874 6.88605 9.00436 6.88605 14.0831C6.88605 17.2268 8.82108 19.0994 11.7094 19.0994C13.7693 19.0994 15.5795 18.339 17.106 16.8126L20.3405 21.6019C17.9912 23.5994 15.012 24.5867 11.3576 24.5867C8.08906 24.5867 5.51848 23.6674 3.61749 21.8289C1.71651 19.9563 0.763184 17.4822 0.763184 14.4009C0.763184 10.6273 2.09671 7.35873 4.79213 4.59521C7.48755 1.8317 10.7277 0.441426 14.5637 0.441426C18.5076 0.435752 20.7887 1.64444 22.9451 4.21502Z" fill="#42BA78"/>
<path d="M62.055 0.82794C64.2113 0.82794 66.0215 1.46349 67.4799 2.72892C68.9723 4.00003 69.6986 5.65133 69.6986 7.67715C69.6986 11.2011 67.6388 14.0554 64.4951 15.4513L68.0473 24.1448H61.5726L58.497 16.4046H55.7392L54.3773 24.1448H48.3452L52.4366 0.822266H62.055V0.82794ZM57.5777 5.99748L56.6244 11.2351H60.2391C62.0493 11.2351 63.5417 9.99805 63.5417 8.09139C63.5417 6.79191 62.6224 5.99748 61.1924 5.99748H57.5777Z" fill="#42BA78"/>
<path d="M114.424 3.14353L110.679 7.68319C109.442 6.50855 107.756 5.90705 105.697 5.90705C103.886 5.90705 102.587 6.48018 102.587 7.71724C102.587 8.60247 103.347 9.11318 105.98 9.61822C111.025 10.5999 112.898 12.7619 112.898 16.1553C112.898 22.1193 107.819 24.565 102.712 24.565C98.8076 24.565 95.7604 23.4245 93.5757 21.1376L97.3209 16.5355C97.894 17.33 98.7168 17.9315 99.8291 18.4081C100.941 18.8507 102.082 19.0721 103.194 19.0721C105.509 19.0721 106.684 18.4365 106.684 17.1994C106.684 16.2802 105.89 15.7751 103.194 15.2304C98.7225 14.3111 96.4981 12.1548 96.4981 8.72731C96.4981 6.34967 97.389 4.34654 99.1651 2.79171C100.97 1.2085 103.222 0.414062 105.98 0.414062C109.567 0.414062 112.359 1.33334 114.424 3.14353Z" fill="#05406B"/>
<path d="M137.033 0.828125L136.113 6.12818H129.003L125.831 24.1506H119.799L122.971 6.12818H115.861L116.78 0.828125H137.033Z" fill="#05406B"/>
<path d="M177.492 4.18765L173.304 8.2166C172.385 6.66177 170.892 5.90137 168.764 5.90137C164.162 5.90137 161.433 8.97699 161.433 14.0557C161.433 17.1994 163.368 19.0721 166.256 19.0721C168.316 19.0721 170.126 18.3117 171.653 16.7852L174.887 21.5745C172.538 23.572 169.559 24.5594 165.904 24.5594C162.636 24.5594 160.065 23.6401 158.164 21.8015C156.263 19.9289 155.31 17.4548 155.31 14.3735C155.31 10.5999 156.644 7.33137 159.339 4.56785C162.034 1.81001 165.275 0.414062 169.116 0.414062C173.049 0.414062 175.336 1.61707 177.492 4.18765Z" fill="#05406B"/>
<path d="M189.545 11.7971L200.763 0.828125H193.642L184.948 9.34566L186.446 0.828125H180.465L176.357 24.1449H182.344L183.615 16.9496L184.886 15.6955L190.146 24.1449H197.239L189.545 11.7971Z" fill="#05406B"/>
<path d="M74.9528 9.83984H92.998L92.4816 12.802C92.317 14.1071 91.2161 15.1285 89.8713 15.1342H73.9428C72.7624 15.1683 71.7864 15.9684 71.48 17.0579L71.8148 15.1342L72.3425 12.1551C72.5014 10.8499 73.6023 9.83984 74.9528 9.83984Z" fill="#42BA78"/>
<path d="M70.2261 24.1459L70.7538 21.1668C70.9184 19.8616 72.0192 18.8516 73.3698 18.8516H91.4149L90.8985 21.8137C90.734 23.1188 89.6331 24.1403 88.2882 24.1459H70.2261Z" fill="#42BA78"/>
<path d="M46.5737 24.1563L40.133 8.89737L36.7283 0.828125L34.2995 4.47687L21.2026 24.1449V24.1506H27.2347V24.1449H28.3356L35.5536 13.3122L40.1273 24.1506L46.5737 24.1563Z" fill="#42BA78"/>
<path d="M155.157 23.7422L148.711 8.4833L145.312 0.414062L142.878 4.06281L129.781 23.7309V23.7366H135.813V23.7309H136.919L144.132 12.8981L148.705 23.7366L155.157 23.7422Z" fill="#05406B"/>
</svg>
