<?xml version="1.0" encoding="UTF-8"?><svg id="a" xmlns="http://www.w3.org/2000/svg" viewBox="0 0 1140.62 446.57"><defs><style>.f{fill:#00cfaf;}</style></defs><g><path class="f" d="M420.43,257.13l-24.57,57.35c-17.34,43.05-41.91,55.92-74.06,55.84-16.11-.04-33.49-4.74-45.31-12.94-2.58-1.78-3.45-5.2-2.02-7.99l13.25-25.63c.09-.17,.19-.34,.3-.51,1.88-2.89,5.75-3.72,8.64-1.84,7.04,4.53,15.2,7.01,23.57,7.18,14.25,.03,22.22-6.25,29.23-22.14l.2-.5c.3-.74,.29-1.57-.02-2.31l-72.61-170.05c-.33-.78-.5-1.61-.5-2.45,0-3.43,2.79-6.21,6.23-6.2l39.79,.1c2.51,0,4.77,1.53,5.73,3.85l45.43,110.56c.3,.74,.89,1.33,1.62,1.63,1.53,.64,3.3-.08,3.94-1.61l41.44-98.84,5.68-13.58c.45-1.08,1.5-1.78,2.66-1.78h4.41v-42.83C433.46,36.92,396.54,0,351,0H82.46C36.92,0,0,36.92,0,82.46v41.77l20.9,.05c3.47,.03,6.27,2.86,6.26,6.33,0,1.32,.42,2.61,1.2,3.67,2.04,2.8,5.96,3.41,8.75,1.37,12.46-9.2,28.39-13.92,46.09-13.88,22.13,.05,41.36,7.72,54.17,23.23,.15,.18,.3,.34,.46,.5,2.5,2.44,6.51,2.4,8.96-.1,14.42-14.75,35.47-23.39,59.4-23.33,42.43,.1,72.87,24.71,72.74,79.08l-.24,95.83c0,3.46-2.82,6.27-6.29,6.26l-39.17-.1h-.04c-3.46-.02-6.26-2.84-6.24-6.3l.22-87.88c.07-28.84-12.83-42.13-33.71-42.18-23.21-.06-39.49,14.82-39.56,46.65l-.2,83.23c0,3.46-2.82,6.27-6.29,6.26l-39.17-.1c-3.47,0-6.27-2.82-6.26-6.29l.22-87.88c.07-28.84-12.16-42.13-33.71-42.18-22.87-.06-39.15,14.82-39.23,46.65l-.2,83.23h0c0,3.47-2.83,6.27-6.29,6.26l-22.77-.06v48.42H0c0,45.54,36.92,82.46,82.46,82.46H351c45.54,0,82.46-36.92,82.46-82.46v-124.67l-13.03,30.81Z"/><path id="b" class="f" d="M685.04,152.41c10.17-9.07,22.01-16.08,34.85-20.65,13.19-4.58,27.06-6.87,41.03-6.77,9.68-.14,19.3,1.59,28.33,5.11,8.06,3.16,15.35,8.01,21.39,14.21,5.93,6.21,10.51,13.57,13.45,21.64,3.19,8.78,4.77,18.07,4.67,27.41v108.29h-23.73c-3.81,.22-7.62-.47-11.11-2-3-1.96-5.22-4.92-6.27-8.36l-3.68-9.53c-4.35,3.68-8.52,6.91-12.53,9.69-3.93,2.74-8.09,5.12-12.45,7.1-4.38,1.98-8.98,3.44-13.7,4.34-5.32,.99-10.72,1.46-16.13,1.42-7.3,.09-14.57-.95-21.56-3.09-6.07-1.84-11.68-4.94-16.46-9.1-4.58-4.12-8.15-9.23-10.43-14.96-2.56-6.58-3.81-13.59-3.68-20.65,.09-6.6,1.69-13.09,4.68-18.97,3.79-7.15,9.38-13.19,16.21-17.54,9.56-6.11,20.06-10.6,31.08-13.28,13.04-3.56,29.47-5.57,49.3-6.02v-7.37c0-10.14-2.09-17.46-6.27-21.98-4.18-4.52-10.11-6.77-17.8-6.77-5.09-.15-10.17,.53-15.04,2-3.6,1.21-7.09,2.72-10.43,4.51-3.07,1.67-6.05,3.18-8.94,4.51-3.27,1.41-6.8,2.09-10.36,2-3.22,.11-6.38-.83-9.02-2.66-2.39-1.72-4.43-3.87-6.01-6.35l-9.38-16.21Zm93.24,78.71c-8.58,.25-17.12,1.14-25.57,2.66-5.49,.95-10.83,2.64-15.88,5.01-3.29,1.48-6.1,3.85-8.11,6.85-1.5,2.53-2.28,5.42-2.26,8.36,0,5.91,1.62,10.06,4.85,12.45,3.23,2.39,7.97,3.59,14.21,3.59,6.03,.13,12.02-1.07,17.54-3.51,5.71-2.85,10.86-6.7,15.21-11.36v-24.06Z"/><path id="c" class="f" d="M910.31,155.09c4.63-8.51,10.91-16.01,18.47-22.06,6.85-5.31,15.31-8.14,23.98-8.02,6.78-.3,13.48,1.63,19.05,5.51l-3.34,38.1c-.27,1.95-1.25,3.74-2.76,5.01-1.58,.97-3.41,1.44-5.26,1.33-.89,0-2.06-.06-3.51-.17-1.45-.11-2.96-.25-4.51-.42-1.56-.17-3.15-.33-4.76-.5-1.47-.16-2.95-.24-4.43-.25-6.58-.34-13.06,1.81-18.13,6.02-4.98,4.68-8.88,10.38-11.45,16.71v105.28h-51.81V128.35h30.75c2.17-.04,4.33,.18,6.44,.67,1.58,.38,3.06,1.09,4.34,2.09,1.2,1,2.12,2.29,2.66,3.76,.69,1.85,1.22,3.75,1.59,5.68l2.68,14.54Z"/><path id="d" class="f" d="M1028.96,224.27c1.67,14.48,6.07,24.99,13.2,31.5s16.32,9.77,27.58,9.77c5.26,.11,10.51-.62,15.54-2.17,4-1.3,7.88-2.92,11.62-4.85,3.4-1.78,6.52-3.39,9.36-4.85,2.76-1.43,5.83-2.17,8.94-2.17,3.69-.21,7.23,1.5,9.36,4.51l15.04,18.55c-4.99,5.82-10.82,10.86-17.3,14.96-5.97,3.74-12.37,6.77-19.05,9.02-6.36,2.14-12.9,3.65-19.55,4.51-6.18,.81-12.4,1.23-18.64,1.25-11.66,.09-23.23-1.92-34.18-5.93-10.45-3.83-19.96-9.84-27.91-17.63-8.27-8.26-14.7-18.17-18.88-29.08-4.86-12.92-7.21-26.64-6.93-40.44-.06-11.25,1.95-22.41,5.93-32.92,7.71-20.67,23.62-37.24,43.96-45.79,21.48-8.59,45.34-9.12,67.18-1.51,9.21,3.36,17.58,8.66,24.56,15.54,7.05,7.1,12.52,15.62,16.04,24.98,4,10.71,5.95,22.08,5.77,33.51,.04,3.18-.13,6.36-.5,9.52-.21,2.06-.83,4.05-1.84,5.85-.82,1.39-2.08,2.45-3.59,3.01-1.86,.61-3.81,.9-5.77,.83l-99.94,.02Zm65.17-30.08c0-4.06-.53-8.11-1.59-12.03-1.01-3.79-2.77-7.34-5.18-10.43-2.53-3.17-5.76-5.72-9.44-7.44-4.46-2.01-9.32-2.98-14.21-2.84-9.81,0-17.49,2.81-23.06,8.44-5.57,5.62-9.25,13.73-11.03,24.31h64.51Z"/><path id="e" class="f" d="M491.11,51.94h43.76c4.45,0,8.06,3.6,8.07,8.05V201.74l54.46-70.17c2.71-3.5,6.89-5.55,11.32-5.55h58.74l-65.81,84.69,73.26,90.93h-59.64c-4.36,0-8.49-1.98-11.21-5.39l-61.12-76.56v81.95h-51.83V51.94Z"/></g><g><path class="f" d="M493.89,419.5v-70.2h15.94v27.38h30.39v-27.38h15.84v70.2h-15.84v-28.18h-30.39v28.18h-15.94Z"/><path class="f" d="M667.07,349.3v14.64h-36.5v12.84h30.69v14.64h-30.69v13.44h37v14.64h-52.95v-70.2h52.45Z"/><path class="f" d="M720.02,419.5l29.58-70.2h13.14l29.48,70.2h-16.55l-4.81-11.83h-29.38l-4.81,11.83h-16.65Zm36.2-47.63l-8.82,21.56h17.65l-8.83-21.56Z"/><path class="f" d="M862.72,349.3v55.56h33.89v14.64h-49.84v-70.2h15.95Z"/><path class="f" d="M949.97,363.94v-14.64h59.17v14.64h-21.66v55.56h-15.84v-55.56h-21.66Z"/><path class="f" d="M1065.09,419.5v-70.2h15.95v27.38h30.38v-27.38h15.84v70.2h-15.84v-28.18h-30.38v28.18h-15.95Z"/></g></svg>